<svg width="1280" height="800" viewBox="0 0 1280 800" fill="none" xmlns="http://www.w3.org/2000/svg">
<rect width="1280" height="800" fill="#00684A"/>
<path d="M873.17 744.41C876.423 744.41 879.06 741.773 879.06 738.52C879.06 735.267 876.423 732.63 873.17 732.63C869.917 732.63 867.28 735.267 867.28 738.52C867.28 741.773 869.917 744.41 873.17 744.41Z" fill="#B45AF2" stroke="black" stroke-linecap="round" stroke-linejoin="round"/>
<path d="M891.49 760.23C894.091 760.23 896.2 758.121 896.2 755.52C896.2 752.919 894.091 750.81 891.49 750.81C888.889 750.81 886.78 752.919 886.78 755.52C886.78 758.121 888.889 760.23 891.49 760.23Z" fill="#B1FF05" stroke="black" stroke-linecap="round" stroke-linejoin="round"/>
<path d="M548.45 283.93L538.72 286.52C535.28 287.44 532.59 290.12 531.68 293.56L529.09 303.28L526.49 293.51C526.28 292.72 525.98 291.98 525.59 291.29C524.53 289.36 522.84 287.83 520.79 286.97C520.37 286.79 519.94 286.64 519.5 286.53L509.73 283.93L519.48 281.33C522.1 280.63 524.29 278.89 525.58 276.58C525.97 275.87 526.28 275.12 526.5 274.31L529.1 264.56L531.72 274.4C532.2 276.21 533.18 277.8 534.51 279.03C535.66 280.09 537.06 280.88 538.62 281.3L548.47 283.93H548.45Z" fill="white" stroke="black" stroke-linecap="round" stroke-linejoin="round"/>
<path d="M1220.84 540.49H1232.81V528.52H1220.84V540.49Z" fill="white" stroke="black" stroke-linecap="round" stroke-linejoin="round"/>
<path d="M1208.86 528.52H1220.83V516.55H1208.86V528.52Z" fill="white" stroke="black" stroke-linecap="round" stroke-linejoin="round"/>
<path d="M1196.89 528.52H1208.86V516.55H1196.89V528.52Z" fill="white" stroke="black" stroke-linecap="round" stroke-linejoin="round"/>
<path d="M1196.89 564.44H1208.86V552.47H1196.89V564.44Z" fill="white" stroke="black" stroke-linecap="round" stroke-linejoin="round"/>
<path d="M1232.8 552.47H1244.77V540.5H1232.8V552.47Z" fill="#023430" stroke="black" stroke-linecap="round" stroke-linejoin="round"/>
<path d="M1208.86 552.47H1220.83V540.5H1208.86V552.47Z" fill="#023430" stroke="black" stroke-linecap="round" stroke-linejoin="round"/>
<path d="M1196.89 516.55H1208.86V504.58H1196.89V516.55Z" fill="#023430" stroke="black" stroke-linecap="round" stroke-linejoin="round"/>
<path d="M993.99 74.27C997.243 74.27 999.88 71.6329 999.88 68.38C999.88 65.127 997.243 62.49 993.99 62.49C990.737 62.49 988.1 65.127 988.1 68.38C988.1 71.6329 990.737 74.27 993.99 74.27Z" fill="#B45AF2" stroke="black" stroke-linecap="round" stroke-linejoin="round"/>
<path d="M1150.03 487.76C1154.6 487.76 1158.31 484.053 1158.31 479.48C1158.31 474.907 1154.6 471.2 1150.03 471.2C1145.46 471.2 1141.75 474.907 1141.75 479.48C1141.75 484.053 1145.46 487.76 1150.03 487.76Z" fill="#B1FF05" stroke="black" stroke-linecap="round" stroke-linejoin="round"/>
<path d="M1195.68 312.84C1201.79 371.35 1169.83 425.06 1119.79 449.32" stroke="white" stroke-linecap="round" stroke-linejoin="round"/>
<path d="M1176.07 444.39C1174.62 444.54 1173.11 444.06 1172 442.94C1170.06 440.98 1170.07 437.82 1172.03 435.88C1175.2 432.73 1178.27 429.4 1181.14 425.97C1182.91 423.86 1186.06 423.58 1188.18 425.35C1190.29 427.12 1190.57 430.27 1188.8 432.39C1185.73 436.05 1182.46 439.61 1179.07 442.97C1178.23 443.8 1177.17 444.28 1176.07 444.39Z" fill="#00ED64" stroke="black" stroke-linecap="round" stroke-linejoin="round"/>
<path d="M1196.24 419.66C1195.14 419.78 1193.99 419.53 1192.99 418.87C1190.68 417.36 1190.04 414.26 1191.55 411.96C1200.61 398.12 1207.22 383 1211.2 367.02C1215.31 350.48 1216.49 333.42 1214.71 316.31C1214.42 313.57 1216.42 311.11 1219.16 310.82C1221.9 310.53 1224.36 312.53 1224.65 315.27C1226.56 333.54 1225.3 351.76 1220.9 369.42C1216.65 386.49 1209.59 402.64 1199.91 417.42C1199.05 418.73 1197.69 419.5 1196.25 419.65L1196.24 419.66Z" fill="#00ED64" stroke="black" stroke-linecap="round" stroke-linejoin="round"/>
<path d="M1172.24 411.98C1176.66 411.98 1180.25 408.394 1180.25 403.97C1180.25 399.546 1176.66 395.96 1172.24 395.96C1167.82 395.96 1164.23 399.546 1164.23 403.97C1164.23 408.394 1167.82 411.98 1172.24 411.98Z" fill="#F9EBFF" stroke="black" stroke-linecap="round" stroke-linejoin="round"/>
<path d="M1181.14 398.33C1185.56 398.33 1189.15 394.744 1189.15 390.32C1189.15 385.896 1185.56 382.31 1181.14 382.31C1176.72 382.31 1173.13 385.896 1173.13 390.32C1173.13 394.744 1176.72 398.33 1181.14 398.33Z" fill="#F9EBFF" stroke="black" stroke-linecap="round" stroke-linejoin="round"/>
<path d="M1188.09 383.44C1192.51 383.44 1196.1 379.854 1196.1 375.43C1196.1 371.006 1192.51 367.42 1188.09 367.42C1183.67 367.42 1180.08 371.006 1180.08 375.43C1180.08 379.854 1183.67 383.44 1188.09 383.44Z" fill="#F2C5EE" stroke="black" stroke-linecap="round" stroke-linejoin="round"/>
<path d="M1047.68 385.68H1134.09V331.95H1047.68V385.68Z" fill="#B1FF05" stroke="black" stroke-linecap="round" stroke-linejoin="round"/>
<path d="M1061.38 308.44L1139.31 340L1135.82 343.53L1115.39 350.86L1134.09 370.34V385.68H1126.1L1103.8 362.46L1092.94 386.37L1089.45 389.9L1057.89 311.97L1061.38 308.44Z" fill="black" stroke="black" stroke-linecap="round" stroke-linejoin="round"/>
<path d="M1135.82 343.53L1111.9 354.39L1134.09 377.34V385.68H1119.36L1100.31 365.99L1089.45 389.9L1057.89 311.97L1135.82 343.53Z" fill="#00ED64" stroke="black" stroke-linecap="round" stroke-linejoin="round"/>
<path d="M770.19 136.77H642.97V263.99H770.19V136.77Z" fill="#B1FF05" stroke="black" stroke-linecap="round" stroke-linejoin="round"/>
<path d="M743.71 171.28C738.16 172.76 732.46 169.46 730.98 163.91C730.2 160.99 730.75 158.02 732.25 155.65C726.74 158.28 723.7 164.54 725.34 170.66C727.18 177.57 734.28 181.67 741.18 179.83C747.67 178.1 751.68 171.74 750.62 165.25C749.42 168.12 746.95 170.41 743.71 171.28Z" fill="#00ED64" stroke="black" stroke-linecap="round" stroke-linejoin="round"/>
<path d="M758.76 186.81L741.81 236.33L724.18 184.85L706.55 236.33L688.93 184.85L671.3 236.33L654.38 186.92L642.97 263.99H770.19L758.76 186.81Z" fill="#00ED64" stroke="black" stroke-linecap="round" stroke-linejoin="round"/>
<path d="M683.54 136.77C682.9 141.9 678.53 145.87 673.23 145.87C669.88 145.87 666.9 144.29 665 141.83C665.65 148.37 671.17 153.49 677.88 153.49C685.03 153.49 690.83 147.69 690.83 140.54C690.83 139.23 690.62 137.96 690.26 136.77H683.55H683.54Z" fill="#00ED64" stroke="black" stroke-linecap="round" stroke-linejoin="round"/>
<path d="M1028.76 471.2H901.54V598.42H1028.76V471.2Z" fill="#5400F8" stroke="black" stroke-linecap="round" stroke-linejoin="round"/>
<path d="M1028.76 534.81H901.54L965.15 471.2L1028.76 534.81Z" fill="#F2C5EE" stroke="black" stroke-linecap="round" stroke-linejoin="round"/>
<path d="M901.54 534.81V598.42H931.08C931.08 579.6 946.34 564.35 965.15 564.35C983.96 564.35 999.22 579.61 999.22 598.42H1028.76V534.81H901.54Z" fill="#B45AF2" stroke="black" stroke-linecap="round" stroke-linejoin="round"/>
<path d="M965.15 524C970.949 524 975.65 519.299 975.65 513.5C975.65 507.701 970.949 503 965.15 503C959.351 503 954.65 507.701 954.65 513.5C954.65 519.299 959.351 524 965.15 524Z" fill="#00ED64" stroke="black" stroke-linecap="round" stroke-linejoin="round"/>
<path d="M965.15 503V524" stroke="black" stroke-linecap="round" stroke-linejoin="round"/>
<path d="M975.65 513.5H954.65" stroke="black" stroke-linecap="round" stroke-linejoin="round"/>
<path d="M694.45 424.32H567.23V551.54H694.45V424.32Z" fill="#00D2FF" stroke="black" stroke-linecap="round" stroke-linejoin="round"/>
<path d="M567.23 551.54H576.03C600.29 540.63 617.18 516.25 617.18 487.93C617.18 459.61 600.29 435.23 576.03 424.32H567.23V551.54Z" fill="#A6FFEC" stroke="black" stroke-linecap="round" stroke-linejoin="round"/>
<path d="M694.45 551.54H685.65C661.39 540.63 644.5 516.25 644.5 487.93C644.5 459.61 661.39 435.23 685.65 424.32H694.45V551.54Z" fill="#A6FFEC" stroke="black" stroke-linecap="round" stroke-linejoin="round"/>
<path d="M677.58 490.11C677.58 490.11 656.65 513.6 630.84 513.6C605.03 513.6 584.1 490.11 584.1 490.11C584.1 490.11 605.03 466.62 630.84 466.62C656.65 466.62 677.58 490.11 677.58 490.11Z" fill="white" stroke="black" stroke-linecap="round" stroke-linejoin="round"/>
<path d="M630.84 505.9C640.091 505.9 647.59 498.401 647.59 489.15C647.59 479.899 640.091 472.4 630.84 472.4C621.589 472.4 614.09 479.899 614.09 489.15C614.09 498.401 621.589 505.9 630.84 505.9Z" fill="#00ED64" stroke="black" stroke-linecap="round" stroke-linejoin="round"/>
<path d="M862.48 43.21H735.26V170.43H862.48V43.21Z" fill="#B45AF2" stroke="black" stroke-linecap="round" stroke-linejoin="round"/>
<path d="M862.48 132.49C862.48 132.49 816.87 123.11 798.87 170.44V81.92C816.87 34.6 862.48 43.97 862.48 43.97V132.49Z" fill="#F0DCEC" stroke="black" stroke-linecap="round" stroke-linejoin="round"/>
<path d="M735.26 132.49C735.26 132.49 780.87 123.11 798.87 170.44V81.92C780.87 34.6 735.26 43.97 735.26 43.97V132.49Z" fill="#F0DCEC" stroke="black" stroke-linecap="round" stroke-linejoin="round"/>
<path d="M809.9 130.87C809.9 130.87 828.2 108.11 852.91 109.3" stroke="black" stroke-linecap="round" stroke-linejoin="round"/>
<path d="M788.57 130.87C788.57 130.87 770.27 108.11 745.56 109.3" stroke="black" stroke-linecap="round" stroke-linejoin="round"/>
<path d="M809.9 107.09C809.9 107.09 828.2 84.3299 852.91 85.5199" stroke="black" stroke-linecap="round" stroke-linejoin="round"/>
<path d="M788.57 107.09C788.57 107.09 770.27 84.3299 745.56 85.5199" stroke="black" stroke-linecap="round" stroke-linejoin="round"/>
<path d="M809.9 83.3099C809.9 83.3099 828.2 60.5499 852.91 61.7399" stroke="black" stroke-linecap="round" stroke-linejoin="round"/>
<path d="M788.57 83.31C788.57 83.31 781.76 74.84 770.84 68.51" stroke="black" stroke-linecap="round" stroke-linejoin="round"/>
<path d="M745.56 56.5699V75.9599C745.56 75.9599 756.16 75.8999 762.37 78.5799V59.9299C762.37 59.9299 758.8 55.8299 745.56 56.5699Z" fill="#00ED64" stroke="black" stroke-linecap="round" stroke-linejoin="round"/>
<path d="M1226.32 621.99H1099.1V749.21H1226.32V621.99Z" fill="#FFC010" stroke="black" stroke-linecap="round" stroke-linejoin="round"/>
<path d="M1186.12 648.86H1209.89L1191.72 677.76H1209.89L1164.37 733.25L1182.08 691.05H1165.02L1186.12 648.86Z" fill="#00ED64" stroke="black" stroke-linecap="round" stroke-linejoin="round"/>
<path d="M1209.89 648.86L1122.86 621.99H1099.1L1186.12 648.86H1209.89Z" fill="#FEE200" stroke="black" stroke-linecap="round" stroke-linejoin="round"/>
<path d="M1099.1 621.99L1186.12 648.86L1164.93 691.05L1099.1 672.97V621.99Z" fill="#FEE200" stroke="black" stroke-linecap="round" stroke-linejoin="round"/>
<path d="M1099.1 672.97L1164.93 691.05H1182.08L1164.37 733.25L1099.1 715.39V672.97Z" fill="#FEE200" stroke="black" stroke-linecap="round" stroke-linejoin="round"/>
<path d="M901.54 376.75H774.13V471.2H901.54V376.75Z" fill="#B1FF05" stroke="black" stroke-linecap="round" stroke-linejoin="round"/>
<path d="M891.49 386.49H784.18V461.45H891.49V386.49Z" fill="#023430" stroke="black" stroke-linecap="round" stroke-linejoin="round"/>
<path d="M798.55 404.93V414.56L820.29 423.97L798.55 433.38V443.01L835.62 427.33V420.62L798.55 404.93Z" fill="#B1FF05" stroke="black" stroke-linecap="round" stroke-linejoin="round"/>
<path d="M877.12 434.04H841.7V443.01H877.12V434.04Z" fill="#B1FF05" stroke="black" stroke-linecap="round" stroke-linejoin="round"/>
<path d="M826.04 573.59H901.54" stroke="white" stroke-linecap="round" stroke-linejoin="round"/>
<path d="M1029.22 513.86H1070.28V666.29H1099.1" stroke="white" stroke-linecap="round" stroke-linejoin="round"/>
<path d="M1070.28 526.99C1077.53 526.99 1083.41 521.111 1083.41 513.86C1083.41 506.608 1077.53 500.73 1070.28 500.73C1063.03 500.73 1057.15 506.608 1057.15 513.86C1057.15 521.111 1063.03 526.99 1070.28 526.99Z" fill="#E3FCF7" stroke="black" stroke-linecap="round" stroke-linejoin="round"/>
<path d="M823.31 376.75V265.16C823.29 252.48 823.31 226.89 835.65 210.96C844.27 200 858.72 197.31 869.21 206.22C900.06 232.39 902.28 332.27 873.9 332.27C841.24 332.27 840.03 200.01 900.88 200.01C961.73 200.01 963.5 332.27 931.86 332.27C898.12 332.27 899.72 200.01 961.55 200.01C1023.38 200.01 1021.6 331.85 990.47 332.27C961.45 332.66 961.08 226.75 1000.2 204.23C1011.52 197.71 1024.31 201.86 1031.04 211.54C1039.14 223.17 1041.45 239.42 1044.46 252.46C1047.9 267.38 1058.6 274.19 1071.58 274.32H1116.47" stroke="white" stroke-linecap="round" stroke-linejoin="round"/>
<path d="M1243.68 221.95H1116.46V349.17H1243.68V221.95Z" fill="#006CFA" stroke="black" stroke-linecap="round" stroke-linejoin="round"/>
<path d="M1180.07 349.17C1215.2 349.17 1243.68 320.691 1243.68 285.56C1243.68 250.429 1215.2 221.95 1180.07 221.95C1144.94 221.95 1116.46 250.429 1116.46 285.56C1116.46 320.691 1144.94 349.17 1180.07 349.17Z" fill="#00D2FF" stroke="black" stroke-linecap="round" stroke-linejoin="round"/>
<path d="M1162.12 321.41C1168.8 321.41 1174.21 315.997 1174.21 309.32C1174.21 302.643 1168.8 297.23 1162.12 297.23C1155.44 297.23 1150.03 302.643 1150.03 309.32C1150.03 315.997 1155.44 321.41 1162.12 321.41Z" fill="#00ED64" stroke="black" stroke-linecap="round" stroke-linejoin="round"/>
<path d="M1174.22 251.15H1152.9V272.47H1174.22V251.15Z" fill="#00ED64" stroke="black" stroke-linecap="round" stroke-linejoin="round"/>
<path d="M1220.83 296.02H1193.88L1207.35 271.84L1220.83 296.02Z" fill="#00ED64" stroke="black" stroke-linecap="round" stroke-linejoin="round"/>
<path d="M675.17 551.54V572.89H515.81C507.88 572.89 501.46 579.32 501.46 587.24C501.46 595.17 507.89 601.59 515.81 601.59H663.37C669.89 601.59 675.17 606.87 675.17 613.39C675.17 619.91 669.89 625.19 663.37 625.19H516.26C508.33 625.19 501.91 631.62 501.91 639.54C501.91 647.47 508.34 653.89 516.26 653.89H675.62V691.18" stroke="white" stroke-linecap="round" stroke-linejoin="round"/>
<path d="M675.34 580.9C679.885 580.9 683.57 577.215 683.57 572.67C683.57 568.125 679.885 564.44 675.34 564.44C670.795 564.44 667.11 568.125 667.11 572.67C667.11 577.215 670.795 580.9 675.34 580.9Z" fill="#E9FF99" stroke="white" stroke-linecap="round" stroke-linejoin="round"/>
<path d="M675.34 662.18C679.885 662.18 683.57 658.495 683.57 653.95C683.57 649.405 679.885 645.72 675.34 645.72C670.795 645.72 667.11 649.405 667.11 653.95C667.11 658.495 670.795 662.18 675.34 662.18Z" fill="#E9FF99" stroke="white" stroke-linecap="round" stroke-linejoin="round"/>
<path d="M917.19 329.69C921.763 329.69 925.47 325.983 925.47 321.41C925.47 316.837 921.763 313.13 917.19 313.13C912.617 313.13 908.91 316.837 908.91 321.41C908.91 325.983 912.617 329.69 917.19 329.69Z" fill="#B1FF05" stroke="black" stroke-linecap="round" stroke-linejoin="round"/>
<path d="M1060.99 504.57L1079.56 523.15" stroke="black" stroke-linecap="round" stroke-linejoin="round"/>
<path d="M1079.56 504.57L1060.99 523.15" stroke="black" stroke-linecap="round" stroke-linejoin="round"/>
<path d="M824.97 556.87C819.6 556.87 814.82 559.4 811.76 563.34C808.7 559.4 803.92 556.87 798.55 556.87C793.18 556.87 788.22 559.5 785.17 563.56C782.12 559.5 777.26 556.87 771.79 556.87C766.01 556.87 760.91 559.81 757.91 564.27C754.91 559.81 749.81 556.87 744.03 556.87C734.79 556.87 727.31 564.36 727.31 573.59C727.31 582.82 734.8 590.31 744.03 590.31C749.81 590.31 754.91 587.37 757.91 582.91C760.91 587.37 766.01 590.31 771.79 590.31C777.26 590.31 782.12 587.68 785.17 583.62C788.22 587.68 793.08 590.31 798.55 590.31C804.02 590.31 808.7 587.78 811.76 583.84C814.82 587.78 819.6 590.31 824.97 590.31C834.21 590.31 841.69 582.82 841.69 573.59C841.69 564.36 834.2 556.87 824.97 556.87Z" fill="#FEE200" stroke="black" stroke-linecap="round" stroke-linejoin="round"/>
<path d="M826.04 578.3C828.641 578.3 830.75 576.191 830.75 573.59C830.75 570.989 828.641 568.88 826.04 568.88C823.439 568.88 821.33 570.989 821.33 573.59C821.33 576.191 823.439 578.3 826.04 578.3Z" fill="#B1FF05" stroke="black" stroke-linecap="round" stroke-linejoin="round"/>
<path d="M798.82 578.3C801.421 578.3 803.53 576.191 803.53 573.59C803.53 570.989 801.421 568.88 798.82 568.88C796.219 568.88 794.11 570.989 794.11 573.59C794.11 576.191 796.219 578.3 798.82 578.3Z" fill="#B1FF05" stroke="black" stroke-linecap="round" stroke-linejoin="round"/>
<path d="M771.59 578.3C774.191 578.3 776.3 576.191 776.3 573.59C776.3 570.989 774.191 568.88 771.59 568.88C768.989 568.88 766.88 570.989 766.88 573.59C766.88 576.191 768.989 578.3 771.59 578.3Z" fill="#B1FF05" stroke="black" stroke-linecap="round" stroke-linejoin="round"/>
<path d="M744.37 578.3C746.971 578.3 749.08 576.191 749.08 573.59C749.08 570.989 746.971 568.88 744.37 568.88C741.769 568.88 739.66 570.989 739.66 573.59C739.66 576.191 741.769 578.3 744.37 578.3Z" fill="#B1FF05" stroke="black" stroke-linecap="round" stroke-linejoin="round"/>
<path d="M1062.28 51.87L1052.55 54.46C1049.11 55.38 1046.42 58.06 1045.51 61.5L1042.92 71.22L1040.32 61.45C1040.11 60.66 1039.81 59.92 1039.42 59.23C1038.36 57.3 1036.67 55.77 1034.62 54.91C1034.2 54.73 1033.77 54.58 1033.33 54.47L1023.56 51.87L1033.31 49.27C1035.93 48.57 1038.12 46.83 1039.41 44.52C1039.8 43.81 1040.11 43.06 1040.33 42.25L1042.93 32.5L1045.55 42.34C1046.03 44.15 1047.01 45.74 1048.34 46.97C1049.49 48.03 1050.89 48.82 1052.45 49.24L1062.3 51.87H1062.28Z" fill="white" stroke="black" stroke-linecap="round" stroke-linejoin="round"/>
<path d="M579.28 49.47H567.31V61.44H579.28V49.47Z" fill="white" stroke="black" stroke-linecap="round" stroke-linejoin="round"/>
<path d="M531.38 61.4399H519.41V73.4099H531.38V61.4399Z" fill="white" stroke="black" stroke-linecap="round" stroke-linejoin="round"/>
<path d="M555.33 85.38H543.36V97.35H555.33V85.38Z" fill="#023430" stroke="black" stroke-linecap="round" stroke-linejoin="round"/>
<path d="M555.33 73.4099H543.36V85.3799H555.33V73.4099Z" fill="white" stroke="black" stroke-linecap="round" stroke-linejoin="round"/>
<path d="M543.36 73.4099H531.39V85.3799H543.36V73.4099Z" fill="#023430" stroke="black" stroke-linecap="round" stroke-linejoin="round"/>
<path d="M567.3 61.4399H555.33V73.4099H567.3V61.4399Z" fill="white" stroke="black" stroke-linecap="round" stroke-linejoin="round"/>
<path d="M567.3 49.47H555.33V61.44H567.3V49.47Z" fill="#023430" stroke="black" stroke-linecap="round" stroke-linejoin="round"/>
<path d="M807.85 731.57H795.88V743.54H807.85V731.57Z" fill="white" stroke="black" stroke-linecap="round" stroke-linejoin="round"/>
<path d="M783.91 719.6H771.94V731.57H783.91V719.6Z" fill="white" stroke="black" stroke-linecap="round" stroke-linejoin="round"/>
<path d="M795.88 719.6H783.91V731.57H795.88V719.6Z" fill="white" stroke="black" stroke-linecap="round" stroke-linejoin="round"/>
<path d="M831.8 755.52H819.83V767.49H831.8V755.52Z" fill="white" stroke="black" stroke-linecap="round" stroke-linejoin="round"/>
<path d="M807.85 743.55H795.88V755.52H807.85V743.55Z" fill="#023430" stroke="black" stroke-linecap="round" stroke-linejoin="round"/>
<path d="M819.82 695.65H807.85V707.62H819.82V695.65Z" fill="white" stroke="black" stroke-linecap="round" stroke-linejoin="round"/>
<path d="M807.85 695.65H795.88V707.62H807.85V695.65Z" fill="#023430" stroke="black" stroke-linecap="round" stroke-linejoin="round"/>
<path d="M819.82 743.55H807.85V755.52H819.82V743.55Z" fill="#023430" stroke="black" stroke-linecap="round" stroke-linejoin="round"/>
<path d="M795.88 707.63H783.91V719.6H795.88V707.63Z" fill="#023430" stroke="black" stroke-linecap="round" stroke-linejoin="round"/>
<path d="M771.93 743.55H759.96V755.52H771.93V743.55Z" fill="white" stroke="black" stroke-linecap="round" stroke-linejoin="round"/>
<path d="M771.93 731.57H759.96V743.54H771.93V731.57Z" fill="#023430" stroke="black" stroke-linecap="round" stroke-linejoin="round"/>
<path d="M704.12 691.2H647.22V748.1H704.12V691.2Z" fill="#FF9F10" stroke="black" stroke-linecap="round" stroke-linejoin="round"/>
<path d="M675.67 738.52C686.092 738.52 694.54 730.072 694.54 719.65C694.54 709.228 686.092 700.78 675.67 700.78C665.248 700.78 656.8 709.228 656.8 719.65C656.8 730.072 665.248 738.52 675.67 738.52Z" fill="#FFE212" stroke="black" stroke-linecap="round" stroke-linejoin="round"/>
<path d="M668.47 719.73C669.751 719.73 670.79 718.691 670.79 717.41C670.79 716.129 669.751 715.09 668.47 715.09C667.189 715.09 666.15 716.129 666.15 717.41C666.15 718.691 667.189 719.73 668.47 719.73Z" fill="#010101" stroke="black" stroke-linecap="round" stroke-linejoin="round"/>
<path d="M682.86 719.73C684.141 719.73 685.18 718.691 685.18 717.41C685.18 716.129 684.141 715.09 682.86 715.09C681.579 715.09 680.54 716.129 680.54 717.41C680.54 718.691 681.579 719.73 682.86 719.73Z" fill="#010101" stroke="black" stroke-linecap="round" stroke-linejoin="round"/>
<path d="M679.74 724.82C679.74 727.07 677.91 728.9 675.66 728.9C673.41 728.9 671.58 727.07 671.58 724.82" stroke="black" stroke-linecap="round" stroke-linejoin="round"/>
<path d="M634.96 343.11V406.19L660.39 374.65L634.96 343.11Z" fill="#F2C5EE" stroke="black" stroke-linecap="round" stroke-linejoin="round"/>
<path d="M660.39 343.11V406.19L685.83 374.65L660.39 343.11Z" fill="#F0DCEC" stroke="black" stroke-linecap="round" stroke-linejoin="round"/>
<path d="M609.53 343.11V406.19L634.96 374.65L609.53 343.11Z" fill="#B45AF2" stroke="black" stroke-linecap="round" stroke-linejoin="round"/>
<path d="M584.1 343.11V406.19L609.53 374.65L584.1 343.11Z" fill="#5400F8" stroke="black" stroke-linecap="round" stroke-linejoin="round"/>
<path d="M1198.68 563.88H1147C1130.95 563.88 1117.94 576.888 1117.94 592.935C1117.94 608.982 1130.95 621.99 1147 621.99H1198.68C1214.73 621.99 1227.74 608.982 1227.74 592.935C1227.74 576.888 1214.73 563.88 1198.68 563.88Z" fill="#E3FCF7" stroke="black" stroke-miterlimit="10"/>
<path d="M1200.78 575.53C1200.53 572.46 1199.2 568.6 1196.78 563.95L1195.6 561.69L1190.2 551.31L1179.75 556.74L1185.15 567.12C1186.99 570.66 1187.85 573.09 1187.74 574.4C1187.63 575.71 1187.03 576.81 1185.95 577.71L1184.22 578.72L1173.62 584.94C1169.63 587.27 1166.86 589.59 1165.29 591.89C1163.72 594.2 1162.83 597.05 1162.6 600.44C1159.69 598.67 1156.84 597.77 1154.06 597.72C1151.27 597.68 1147.78 598.61 1143.58 600.54L1130.58 606.47C1129.23 606.84 1127.98 606.7 1126.84 606.03C1125.7 605.37 1124.22 603.27 1122.38 599.73L1117.97 591.24C1117.94 591.8 1117.92 592.37 1117.92 592.94C1117.92 604.28 1124.41 614.09 1133.88 618.88C1135.93 618.15 1138.27 617.12 1140.88 615.76C1146.8 612.68 1150.69 610.92 1152.56 610.47C1154.43 610.02 1156.35 610.01 1158.33 610.46C1160.31 610.91 1162.2 612.71 1163.99 615.87L1169.21 613.16L1174.43 610.45C1172.87 607.17 1172.48 604.59 1173.26 602.71C1174.04 600.83 1175.14 599.26 1176.59 598C1178.03 596.73 1181.71 594.56 1187.63 591.49C1190.33 590.09 1192.59 588.73 1194.39 587.43C1196.17 586.15 1197.51 584.91 1198.41 583.73C1200.23 581.35 1201.01 578.62 1200.76 575.54L1200.78 575.53Z" fill="#00D2FF" stroke="black" stroke-miterlimit="10"/>
<path d="M1157.23 590.06C1157.46 586.66 1158.35 583.81 1159.92 581.51C1161.49 579.2 1164.26 576.89 1168.25 574.56L1180.58 567.33C1181.66 566.44 1182.26 565.33 1182.37 564.02C1182.48 562.71 1181.62 560.28 1179.78 556.74L1190.23 551.31L1191.41 553.57C1193.82 558.21 1195.15 562.07 1195.41 565.15C1195.66 568.23 1194.88 570.95 1193.06 573.34C1191.24 575.72 1187.65 578.31 1182.28 581.1C1176.36 584.18 1172.68 586.35 1171.24 587.61C1169.8 588.88 1168.69 590.45 1167.91 592.32C1167.14 594.2 1167.53 596.78 1169.08 600.06L1163.86 602.77L1157.26 590.06H1157.23Z" fill="black" stroke="black" stroke-miterlimit="10"/>
<path d="M1169.05 600.119L1158.6 605.545L1164 615.928L1174.44 610.502L1169.05 600.119Z" fill="#00D2FF" stroke="black" stroke-miterlimit="10"/>
<path d="M1148.68 587.34C1145.89 587.3 1142.4 588.23 1138.2 590.16L1125.2 596.09C1123.85 596.46 1122.6 596.32 1121.46 595.65C1120.54 595.11 1119.38 593.62 1117.99 591.17C1117.95 591.76 1117.93 592.35 1117.93 592.95C1117.93 599.2 1119.9 604.99 1123.26 609.73C1126.23 609.53 1130.31 608.08 1135.5 605.39C1141.42 602.31 1145.31 600.55 1147.18 600.1C1149.05 599.65 1150.97 599.64 1152.95 600.09C1154.93 600.54 1156.82 602.34 1158.61 605.5L1163.83 602.79L1157.23 590.08C1154.32 588.31 1151.47 587.41 1148.69 587.36L1148.68 587.34Z" fill="#A6FFEC" stroke="black" stroke-miterlimit="10"/>
<path d="M1042.92 248.5C1046.27 248.5 1048.98 245.787 1048.98 242.44C1048.98 239.093 1046.27 236.38 1042.92 236.38C1039.57 236.38 1036.86 239.093 1036.86 242.44C1036.86 245.787 1039.57 248.5 1042.92 248.5Z" fill="white" stroke="black" stroke-linecap="round" stroke-linejoin="round"/>
<path d="M823.31 317.34C826.657 317.34 829.37 314.627 829.37 311.28C829.37 307.933 826.657 305.22 823.31 305.22C819.963 305.22 817.25 307.933 817.25 311.28C817.25 314.627 819.963 317.34 823.31 317.34Z" fill="white" stroke="black" stroke-linecap="round" stroke-linejoin="round"/>
<path d="M823.31 329.45C826.657 329.45 829.37 326.737 829.37 323.39C829.37 320.043 826.657 317.33 823.31 317.33C819.963 317.33 817.25 320.043 817.25 323.39C817.25 326.737 819.963 329.45 823.31 329.45Z" fill="white" stroke="black" stroke-linecap="round" stroke-linejoin="round"/>
<path d="M823.31 341.57C826.657 341.57 829.37 338.857 829.37 335.51C829.37 332.163 826.657 329.45 823.31 329.45C819.963 329.45 817.25 332.163 817.25 335.51C817.25 338.857 819.963 341.57 823.31 341.57Z" fill="white" stroke="black" stroke-linecap="round" stroke-linejoin="round"/>
<path d="M1208.17 73.41H1113.46C1102.55 73.41 1093.7 82.2569 1093.7 93.17V93.18C1093.7 104.093 1102.55 112.94 1113.46 112.94H1208.17C1219.08 112.94 1227.93 104.093 1227.93 93.18V93.17C1227.93 82.2569 1219.08 73.41 1208.17 73.41Z" fill="white" stroke="black" stroke-miterlimit="10"/>
<path d="M1207.44 90.96H1149.2C1148.13 90.96 1147.26 91.8285 1147.26 92.9V93.45C1147.26 94.5214 1148.13 95.39 1149.2 95.39H1207.44C1208.51 95.39 1209.38 94.5214 1209.38 93.45V92.9C1209.38 91.8285 1208.51 90.96 1207.44 90.96Z" fill="#231F20" stroke="black" stroke-miterlimit="10"/>
<path d="M1113.24 87.33V82.22L1138.4 90.7V95.65L1113.24 104.13V99.02L1131.19 93.18L1113.24 87.33Z" fill="#00ED64" stroke="black" stroke-miterlimit="10"/>
<path d="M1141.06 104.65H1030.11C1019.2 104.65 1010.35 113.497 1010.35 124.41V124.42C1010.35 135.333 1019.2 144.18 1030.11 144.18H1141.06C1151.97 144.18 1160.82 135.333 1160.82 124.42V124.41C1160.82 113.497 1151.97 104.65 1141.06 104.65Z" fill="#B1FF05" stroke="black" stroke-miterlimit="10"/>
<path d="M1037.99 134.52V135.68C1037.99 138.73 1038.7 141.62 1039.97 144.18H1141.63C1152.22 144.18 1160.81 135.59 1160.81 125V123.84C1160.81 120.79 1160.1 117.9 1158.83 115.34H1057.17C1046.58 115.34 1037.99 123.93 1037.99 134.52Z" fill="#231F20" stroke="black" stroke-miterlimit="10"/>
<path d="M1192.55 123.45H1072.82C1061.91 123.45 1053.06 132.297 1053.06 143.21V143.22C1053.06 154.133 1061.91 162.98 1072.82 162.98H1192.55C1203.46 162.98 1212.31 154.133 1212.31 143.22V143.21C1212.31 132.297 1203.46 123.45 1192.55 123.45Z" fill="white" stroke="black" stroke-miterlimit="10"/>
<path d="M1157.53 141H1108.56C1107.49 141 1106.62 141.869 1106.62 142.94V143.49C1106.62 144.561 1107.49 145.43 1108.56 145.43H1157.53C1158.6 145.43 1159.47 144.561 1159.47 143.49V142.94C1159.47 141.869 1158.6 141 1157.53 141Z" fill="#231F20" stroke="black" stroke-miterlimit="10"/>
<path d="M1196.45 141H1170.19C1169.12 141 1168.25 141.869 1168.25 142.94V143.49C1168.25 144.561 1169.12 145.43 1170.19 145.43H1196.45C1197.52 145.43 1198.39 144.561 1198.39 143.49V142.94C1198.39 141.869 1197.52 141 1196.45 141Z" fill="#231F20" stroke="black" stroke-miterlimit="10"/>
<path d="M1072.6 137.37V132.26L1097.76 140.74V145.69L1072.6 154.17V149.06L1090.55 143.21L1072.6 137.37Z" fill="#00ED64" stroke="black" stroke-miterlimit="10"/>
<path d="M1070.28 672.35C1073.63 672.35 1076.34 669.637 1076.34 666.29C1076.34 662.943 1073.63 660.23 1070.28 660.23C1066.93 660.23 1064.22 662.943 1064.22 666.29C1064.22 669.637 1066.93 672.35 1070.28 672.35Z" fill="white" stroke="black" stroke-linecap="round" stroke-linejoin="round"/>
<path d="M980.31 130.1C983.563 130.1 986.2 127.463 986.2 124.21C986.2 120.957 983.563 118.32 980.31 118.32C977.057 118.32 974.42 120.957 974.42 124.21C974.42 127.463 977.057 130.1 980.31 130.1Z" fill="#B45AF2" stroke="white" stroke-linecap="round" stroke-linejoin="round"/>
<path d="M1010.35 124.21H916.26V85.47H862.48" stroke="white" stroke-linecap="round" stroke-linejoin="round"/>
<path d="M980.31 130.1C983.563 130.1 986.2 127.463 986.2 124.21C986.2 120.957 983.563 118.32 980.31 118.32C977.057 118.32 974.42 120.957 974.42 124.21C974.42 127.463 977.057 130.1 980.31 130.1Z" fill="#B1FF05" stroke="white" stroke-linecap="round" stroke-linejoin="round"/>
<path d="M968.52 130.1C971.773 130.1 974.41 127.463 974.41 124.21C974.41 120.957 971.773 118.32 968.52 118.32C965.267 118.32 962.63 120.957 962.63 124.21C962.63 127.463 965.267 130.1 968.52 130.1Z" fill="#E9FF99" stroke="white" stroke-linecap="round" stroke-linejoin="round"/>
<path d="M927.331 85.47L916.257 74.3967L905.184 85.47L916.257 96.5433L927.331 85.47Z" fill="#E9FF99" stroke="black" stroke-linecap="round" stroke-linejoin="round"/>
<path d="M901.54 424.47C927.35 424.47 948.27 445.39 948.27 471.2" stroke="white" stroke-linecap="round" stroke-linejoin="round"/>
<path d="M901.54 517.93C875.73 517.93 854.81 497.01 854.81 471.2" stroke="white" stroke-linecap="round" stroke-linejoin="round"/>
<path d="M901.54 392.09C945.23 392.09 980.65 427.51 980.65 471.2" stroke="white" stroke-linecap="round" stroke-linejoin="round"/>
<path d="M901.54 550.3C857.85 550.3 822.43 514.88 822.43 471.19" stroke="white" stroke-linecap="round" stroke-linejoin="round"/>
<path d="M966.35 417.39C965.95 417.39 965.55 417.42 965.17 417.49C965.28 416.99 965.33 416.48 965.33 415.95C965.33 411.88 962.03 408.58 957.96 408.58C953.89 408.58 950.59 411.88 950.59 415.95C950.59 420.02 953.89 423.32 957.96 423.32C958.36 423.32 958.76 423.29 959.14 423.22C959.03 423.72 958.98 424.23 958.98 424.76C958.98 428.83 962.28 432.13 966.35 432.13C970.42 432.13 973.72 428.83 973.72 424.76C973.72 420.69 970.42 417.39 966.35 417.39Z" fill="white" stroke="black" stroke-linecap="round" stroke-linejoin="round"/>
<path d="M966.43 427.49C967.927 427.49 969.14 426.277 969.14 424.78C969.14 423.283 967.927 422.07 966.43 422.07C964.933 422.07 963.72 423.283 963.72 424.78C963.72 426.277 964.933 427.49 966.43 427.49Z" fill="#B1FF05" stroke="black" stroke-linecap="round" stroke-linejoin="round"/>
<path d="M957.85 418.49C959.347 418.49 960.56 417.277 960.56 415.78C960.56 414.283 959.347 413.07 957.85 413.07C956.353 413.07 955.14 414.283 955.14 415.78C955.14 417.277 956.353 418.49 957.85 418.49Z" fill="#B1FF05" stroke="black" stroke-linecap="round" stroke-linejoin="round"/>
<path d="M857.85 621.24H984.56C996.1 621.24 1005.47 630.61 1005.47 642.15C1005.47 653.69 996.1 663.06 984.56 663.06H857.85C854.54 663.06 851.86 660.37 851.86 657.07V627.24C851.86 623.93 854.55 621.25 857.85 621.25V621.24Z" fill="#E3FCF7" stroke="black" stroke-miterlimit="10"/>
<path d="M857.85 621.24H960.61C972.15 621.24 981.52 630.61 981.52 642.15C981.52 653.69 972.15 663.06 960.61 663.06H857.85C854.54 663.06 851.86 660.37 851.86 657.07V627.24C851.86 623.93 854.55 621.25 857.85 621.25V621.24Z" fill="#A6FFEC" stroke="black" stroke-miterlimit="10"/>
<path d="M857.85 621.24H932.8C944.34 621.24 953.71 630.61 953.71 642.15C953.71 653.69 944.34 663.06 932.8 663.06H857.85C854.54 663.06 851.86 660.37 851.86 657.07V627.24C851.86 623.93 854.55 621.25 857.85 621.25V621.24Z" fill="#00D2FF" stroke="black" stroke-miterlimit="10"/>
<path d="M851.86 663.86C863.629 663.86 873.17 654.319 873.17 642.55C873.17 630.781 863.629 621.24 851.86 621.24C840.091 621.24 830.55 630.781 830.55 642.55C830.55 654.319 840.091 663.86 851.86 663.86Z" fill="#006CFA" stroke="black" stroke-miterlimit="10"/>
<path d="M864.79 634.58L861.36 631.15L847.93 644.57L842.36 638.99L838.92 642.42L845.86 649.35L845.87 649.34L847.95 651.42L864.79 634.58Z" fill="white" stroke="black" stroke-miterlimit="10"/>
<path d="M568.33 210.46L561.01 225.71L570.56 239.67L587.43 238.38L594.74 223.13L585.19 209.17L568.33 210.46Z" fill="white" stroke="black" stroke-linecap="round" stroke-linejoin="round"/>
<path d="M577.88 224.42L585.19 209.17L568.33 210.46L561.01 225.71L577.88 224.42Z" fill="black" stroke="black" stroke-linecap="round" stroke-linejoin="round"/>
<path d="M577.88 224.42L587.43 238.38" stroke="black" stroke-linecap="round" stroke-linejoin="round"/>
<path d="M642.97 263.99L774.13 376.75L770.19 263.99" stroke="white" stroke-linecap="round" stroke-linejoin="round"/>
<path d="M771.8 590.31V719.73H704.12" stroke="white" stroke-linecap="round" stroke-linejoin="round"/>
<path d="M648.15 99.47H565.37C560.19 99.47 555.99 103.67 555.99 108.85V144.6C555.99 149.78 560.19 153.98 565.37 153.98H596.48C596.48 153.98 601.71 172.1 622.95 174.7V165.05L616.76 161.97C616.45 159.67 616.39 157.02 616.7 153.98H648.14C653.32 153.98 657.52 149.78 657.52 144.6V108.85C657.52 103.67 653.32 99.47 648.14 99.47H648.15Z" fill="white" stroke="black" stroke-miterlimit="10"/>
<path d="M648.15 89.8199H565.37C560.19 89.8199 555.99 94.0199 555.99 99.1999V134.95C555.99 140.13 560.19 144.33 565.37 144.33H596.48C596.48 144.33 601.7 162.45 622.95 165.05C622.95 165.05 615.15 159.41 616.71 144.33H648.15C653.33 144.33 657.53 140.13 657.53 134.95V99.1999C657.53 94.0199 653.33 89.8199 648.15 89.8199Z" fill="#FDB521" stroke="black" stroke-miterlimit="10"/>
<path d="M589.75 98.6899H588.98C587.478 98.6899 586.26 99.9077 586.26 101.41V109.95C586.26 111.452 587.478 112.67 588.98 112.67H589.75C591.252 112.67 592.47 111.452 592.47 109.95V101.41C592.47 99.9077 591.252 98.6899 589.75 98.6899Z" fill="black" stroke="black" stroke-miterlimit="10"/>
<path d="M623.34 98.6899H622.57C621.068 98.6899 619.85 99.9077 619.85 101.41V109.95C619.85 111.452 621.068 112.67 622.57 112.67H623.34C624.842 112.67 626.06 111.452 626.06 109.95V101.41C626.06 99.9077 624.842 98.6899 623.34 98.6899Z" fill="black" stroke="black" stroke-miterlimit="10"/>
<path d="M633.73 127.58L631.46 128.49C615.61 134.84 597.92 134.84 582.07 128.49L579.8 127.58C578.64 127.12 577.88 125.99 577.88 124.74C577.88 122.58 580.07 121.1 582.07 121.9C597.92 128.25 615.61 128.25 631.46 121.9C633.47 121.1 635.65 122.57 635.65 124.74C635.65 125.99 634.89 127.11 633.73 127.58Z" fill="black" stroke="black" stroke-miterlimit="10"/>
<path d="M908.91 663.86V707.63H1099.1" stroke="white" stroke-linecap="round" stroke-linejoin="round"/>
<path d="M1064.28 701.64H999.98C996.672 701.64 993.99 704.32 993.99 707.625C993.99 710.93 996.672 713.61 999.98 713.61H1064.28C1067.59 713.61 1070.27 710.93 1070.27 707.625C1070.27 704.32 1067.59 701.64 1064.28 701.64Z" fill="#F2C5EE" stroke="black" stroke-linecap="round" stroke-linejoin="round"/>
<path d="M566.77 595.78H535.08C531.772 595.78 529.09 598.46 529.09 601.765C529.09 605.07 531.772 607.75 535.08 607.75H566.77C570.078 607.75 572.76 605.07 572.76 601.765C572.76 598.46 570.078 595.78 566.77 595.78Z" fill="#E9FF99" stroke="black" stroke-linecap="round" stroke-linejoin="round"/>
</svg>
